# Blender v2.83.1 OBJ File: ''
# www.blender.org
mtllib ss_pipe.mtl
o ss_pipe_flange_SSPipes.005
v 0.706900 1.000000 0.000500
v 0.999500 1.000000 0.293100
v 0.999500 0.812500 0.293100
v 0.706900 0.812500 0.000500
v 0.293100 1.000000 0.000500
v 0.293100 0.812500 0.000500
v 0.000500 1.000000 0.293100
v 0.000500 0.812500 0.293100
v 0.000500 1.000000 0.706900
v 0.000500 0.812500 0.706900
v 0.293100 1.000000 0.999500
v 0.293100 0.812500 0.999500
v 0.706900 1.000000 0.999500
v 0.706900 0.812500 0.999500
v 0.999500 1.000000 0.706900
v 0.999500 0.812500 0.706900
v 0.874600 0.812500 0.344800
v 0.655200 0.812500 0.125400
v 0.874600 0.812500 0.655200
v 0.655200 0.812500 0.874600
v 0.344800 0.812500 0.874600
v 0.125400 0.812500 0.655200
v 0.125400 0.812500 0.344800
v 0.344800 0.812500 0.125400
v 0.500000 1.000000 0.500000
vt 0.500000 0.125000
vt 0.250000 0.125000
vt 0.250000 -0.000000
vt 0.500000 -0.000000
vt 1.000000 0.125000
vt 0.750000 0.125000
vt 0.750000 0.000000
vt 1.000000 0.000000
vt 0.250000 0.125000
vt 0.000000 0.125000
vt -0.000000 -0.000000
vt 0.250000 -0.000000
vt 0.750000 0.125000
vt 0.500000 0.125000
vt 0.500000 0.000000
vt 0.750000 0.000000
vt 0.500000 0.125000
vt 0.250000 0.125000
vt 0.250000 -0.000000
vt 0.500000 -0.000000
vt 1.000000 0.125000
vt 0.750000 0.125000
vt 0.750000 0.000000
vt 1.000000 0.000000
vt 0.250000 0.125000
vt 0.000000 0.125000
vt -0.000000 -0.000000
vt 0.250000 -0.000000
vt 0.750000 0.125000
vt 0.500000 0.125000
vt 0.500000 0.000000
vt 0.750000 0.000000
vt 0.291700 1.000000
vt 0.000000 1.000000
vt 0.041700 0.916700
vt 0.250000 0.916700
vt 0.583300 1.000000
vt 0.291700 1.000000
vt 0.333300 0.916700
vt 0.541700 0.916700
vt 0.000000 1.000000
vt 0.041700 0.916700
vt 0.250000 0.916700
vt 0.583300 1.000000
vt 0.291700 1.000000
vt 0.333300 0.916700
vt 0.541700 0.916700
vt 0.000000 1.000000
vt 0.041700 0.916700
vt 0.250000 0.916700
vt 0.583300 1.000000
vt 0.291700 1.000000
vt 0.333300 0.916700
vt 0.541700 0.916700
vt 0.000000 1.000000
vt 0.041700 0.916700
vt 0.250000 0.916700
vt 0.583300 1.000000
vt 0.333300 0.916700
vt 0.541700 0.916700
vt 0.833300 0.375000
vt 0.833300 0.625000
vt 0.500000 0.500000
vt 0.843800 0.625000
vt 0.625000 0.833300
vt 0.375000 0.833300
vt 0.166700 0.625000
vt 0.166700 0.375000
vt 0.375000 0.166700
vt 0.625000 0.166700
vn 0.7071 0.0000 -0.7071
vn 0.0000 0.0000 -1.0000
vn -0.7071 0.0000 -0.7071
vn -1.0000 -0.0000 0.0000
vn -0.7071 -0.0000 0.7071
vn 0.0000 -0.0000 1.0000
vn 0.7071 -0.0000 0.7071
vn 1.0000 0.0000 0.0000
vn -0.0000 -1.0000 -0.0000
vn 0.0000 1.0000 0.0000
usemtl Pipes.001
s 1
f 1/1/1 2/2/1 3/3/1
f 3/3/1 4/4/1 1/1/1
f 5/5/2 1/6/2 4/7/2
f 4/7/2 6/8/2 5/5/2
f 7/9/3 5/10/3 6/11/3
f 6/11/3 8/12/3 7/9/3
f 9/13/4 7/14/4 8/15/4
f 8/15/4 10/16/4 9/13/4
f 11/17/5 9/18/5 10/19/5
f 10/19/5 12/20/5 11/17/5
f 13/21/6 11/22/6 12/23/6
f 12/23/6 14/24/6 13/21/6
f 15/25/7 13/26/7 14/27/7
f 14/27/7 16/28/7 15/25/7
f 2/29/8 15/30/8 16/31/8
f 16/31/8 3/32/8 2/29/8
f 4/33/9 3/34/9 17/35/9
f 17/35/9 18/36/9 4/33/9
f 3/37/9 16/38/9 19/39/9
f 19/39/9 17/40/9 3/37/9
f 16/38/9 14/41/9 20/42/9
f 20/42/9 19/43/9 16/38/9
f 14/44/9 12/45/9 21/46/9
f 21/46/9 20/47/9 14/44/9
f 12/45/9 10/48/9 22/49/9
f 22/49/9 21/50/9 12/45/9
f 10/51/9 8/52/9 23/53/9
f 23/53/9 22/54/9 10/51/9
f 8/52/9 6/55/9 24/56/9
f 24/56/9 23/57/9 8/52/9
f 6/58/9 4/33/9 18/59/9
f 18/59/9 24/60/9 6/58/9
f 15/61/10 2/62/10 25/63/10
f 2/64/10 1/65/10 25/63/10
f 1/65/10 5/66/10 25/63/10
f 5/66/10 7/67/10 25/63/10
f 7/67/10 9/68/10 25/63/10
f 9/68/10 11/69/10 25/63/10
f 11/69/10 13/70/10 25/63/10
f 13/70/10 15/61/10 25/63/10
