# Blender v2.81 (sub 16) OBJ File: 'ss_pipe_straight.blend'
# www.blender.org
mtllib ss_pipe_straight.mtl
o ss_pipe_straight_Cylinder.002
v 0.500000 0.000000 0.125000
v 0.500000 1.000000 0.125000
v 0.765165 0.000000 0.234835
v 0.765165 1.000000 0.234835
v 0.875000 0.000000 0.500000
v 0.875000 1.000000 0.500000
v 0.765165 0.000000 0.765165
v 0.765165 1.000000 0.765165
v 0.500000 0.000000 0.875000
v 0.500000 1.000000 0.875000
v 0.234835 0.000000 0.765165
v 0.234835 1.000000 0.765165
v 0.125000 0.000000 0.500000
v 0.125000 1.000000 0.500000
v 0.234835 0.000000 0.234835
v 0.234835 1.000000 0.234835
vt 0.078125 0.421875
vt 0.078125 0.671875
vt 0.000000 0.671875
vt 0.000000 0.421875
vt 0.078125 0.421875
vt 0.078125 0.671875
vt 0.000000 0.671875
vt 0.000000 0.421875
vt 0.078125 0.421875
vt 0.078125 0.671875
vt 0.000000 0.671875
vt 0.000000 0.421875
vt 0.078125 0.421875
vt 0.078125 0.671875
vt 0.000000 0.671875
vt 0.000000 0.421875
vt 0.078125 0.421875
vt 0.078125 0.671875
vt 0.000000 0.671875
vt 0.000000 0.421875
vt 0.078125 0.421875
vt 0.078125 0.671875
vt 0.000000 0.671875
vt 0.000000 0.421875
vt 0.078125 0.421875
vt 0.078125 0.671875
vt 0.000000 0.671875
vt 0.000000 0.421875
vt 0.078125 0.421875
vt 0.078125 0.671875
vt 0.000000 0.671875
vt 0.000000 0.421875
vn 0.3827 0.0000 -0.9239
vn 0.9239 0.0000 -0.3827
vn 0.9239 0.0000 0.3827
vn 0.3827 0.0000 0.9239
vn -0.3827 0.0000 0.9239
vn -0.9239 0.0000 0.3827
vn -0.9239 0.0000 -0.3827
vn -0.3827 0.0000 -0.9239
usemtl ss_pipe
s off
f 1/1/1 2/2/1 4/3/1 3/4/1
f 3/5/2 4/6/2 6/7/2 5/8/2
f 5/9/3 6/10/3 8/11/3 7/12/3
f 7/13/4 8/14/4 10/15/4 9/16/4
f 9/17/5 10/18/5 12/19/5 11/20/5
f 11/21/6 12/22/6 14/23/6 13/24/6
f 13/25/7 14/26/7 16/27/7 15/28/7
f 15/29/8 16/30/8 2/31/8 1/32/8
