# Blender v2.81 (sub 16) OBJ File: 'ss_pipe_flange_prone.blend'
# www.blender.org
mtllib ss_pipe_flange_prone.mtl
o ss_pipe_flange_prone_Cylinder.001
v 0.500000 0.500000 0.000000
v 0.500000 0.500000 0.312500
v 0.500000 1.000000 0.000000
v 0.500000 1.000000 0.312500
v 0.853553 0.853553 0.000000
v 0.853553 0.853553 0.312500
v 1.000000 0.500000 0.000000
v 1.000000 0.500000 0.312500
v 0.853553 0.146447 0.000000
v 0.853553 0.146447 0.312500
v 0.500000 0.000000 0.000000
v 0.500000 0.000000 0.312500
v 0.146447 0.146447 0.000000
v 0.146447 0.146447 0.312500
v 0.000000 0.500000 0.000000
v 0.000000 0.500000 0.312500
v 0.146447 0.853553 0.000000
v 0.146447 0.853553 0.312500
vt 0.125000 0.796875
vt 0.171875 0.921875
vt 0.078125 0.921875
vt 0.125000 0.796875
vt 0.000000 0.843750
vt -0.000000 0.750000
vt 0.093750 0.921875
vt 0.093750 1.000000
vt 0.000000 1.000000
vt 0.000000 0.921875
vt 0.000000 0.843750
vt 0.078125 0.921875
vt 0.093750 0.921875
vt 0.093750 1.000000
vt 0.000000 1.000000
vt -0.000000 0.921875
vt 0.000000 0.750000
vt 0.171875 0.921875
vt 0.093750 0.921875
vt 0.093750 1.000000
vt 0.000000 1.000000
vt 0.000000 0.921875
vt 0.078125 0.671875
vt 0.250000 0.843750
vt 0.093750 0.921875
vt 0.093750 1.000000
vt 0.000000 1.000000
vt 0.000000 0.921875
vt 0.171875 0.671875
vt 0.250000 0.750000
vt 0.093750 0.921875
vt 0.093750 1.000000
vt 0.000000 1.000000
vt -0.000000 0.921875
vt 0.250000 0.750000
vt 0.171875 0.671875
vt 0.093750 0.921875
vt 0.093750 1.000000
vt 0.000000 1.000000
vt -0.000000 0.921875
vt 0.250000 0.843750
vt 0.078125 0.671875
vt 0.093750 0.921875
vt 0.093750 1.000000
vt 0.000000 1.000000
vt 0.000000 0.921875
vt 0.093750 0.921875
vt 0.093750 1.000000
vt 0.000000 1.000000
vt 0.000000 0.921875
vn 0.0000 0.0000 -1.0000
vn 0.0000 0.0000 1.0000
vn 0.3827 0.9239 0.0000
vn 0.9239 0.3827 0.0000
vn 0.9239 -0.3827 -0.0000
vn 0.3827 -0.9239 -0.0000
vn -0.3827 -0.9239 -0.0000
vn -0.9239 -0.3827 0.0000
vn -0.9239 0.3827 0.0000
vn -0.3827 0.9239 0.0000
usemtl ss_pipe
s off
f 1/1/1 3/2/1 5/3/1
f 2/4/2 6/5/2 4/6/2
f 3/7/3 4/8/3 6/9/3 5/10/3
f 1/1/1 5/3/1 7/11/1
f 2/4/2 8/12/2 6/5/2
f 5/13/4 6/14/4 8/15/4 7/16/4
f 1/1/1 7/11/1 9/17/1
f 2/4/2 10/18/2 8/12/2
f 7/19/5 8/20/5 10/21/5 9/22/5
f 1/1/1 9/17/1 11/23/1
f 2/4/2 12/24/2 10/18/2
f 9/25/6 10/26/6 12/27/6 11/28/6
f 1/1/1 11/23/1 13/29/1
f 2/4/2 14/30/2 12/24/2
f 11/31/7 12/32/7 14/33/7 13/34/7
f 1/1/1 13/29/1 15/35/1
f 2/4/2 16/36/2 14/30/2
f 13/37/8 14/38/8 16/39/8 15/40/8
f 1/1/1 15/35/1 17/41/1
f 2/4/2 18/42/2 16/36/2
f 15/43/9 16/44/9 18/45/9 17/46/9
f 1/1/1 17/41/1 3/2/1
f 2/4/2 4/6/2 18/42/2
f 17/47/10 18/48/10 4/49/10 3/50/10
