# Blender v2.81 (sub 16) OBJ File: 'ss_pipe_straight_2f.blend'
# www.blender.org
mtllib ss_pipe_straight_2f.mtl
o ss_pipe_straight_2f_Cylinder.002
v 0.500000 0.062500 0.125000
v 0.500000 0.937500 0.125000
v 0.765165 0.062500 0.234835
v 0.765165 0.937500 0.234835
v 0.875000 0.062500 0.500000
v 0.875000 0.937500 0.500000
v 0.765165 0.062500 0.765165
v 0.765165 0.937500 0.765165
v 0.500000 0.062500 0.875000
v 0.500000 0.937500 0.875000
v 0.234835 0.062500 0.765165
v 0.234835 0.937500 0.765165
v 0.125000 0.062500 0.500000
v 0.125000 0.937500 0.500000
v 0.234835 0.062500 0.234835
v 0.234835 0.937500 0.234835
vt 0.156250 0.656250
vt 0.156250 0.437500
vt 0.234375 0.437500
vt 0.234375 0.656250
vt 0.234375 0.437500
vt 0.234375 0.656250
vt 0.156250 0.656250
vt 0.156250 0.437500
vt 0.234375 0.437500
vt 0.234375 0.656250
vt 0.156250 0.656250
vt 0.156250 0.437500
vt 0.234375 0.437500
vt 0.234375 0.656250
vt 0.156250 0.656250
vt 0.156250 0.437500
vt 0.234375 0.437500
vt 0.234375 0.656250
vt 0.156250 0.656250
vt 0.156250 0.437500
vt 0.234375 0.437500
vt 0.234375 0.656250
vt 0.156250 0.656250
vt 0.156250 0.437500
vt 0.156250 0.656250
vt 0.156250 0.437500
vt 0.234375 0.437500
vt 0.234375 0.656250
vt 0.234375 0.437500
vt 0.234375 0.656250
vt 0.156250 0.656250
vt 0.156250 0.437500
vn 0.3827 0.0000 -0.9239
vn 0.9239 0.0000 -0.3827
vn 0.9239 0.0000 0.3827
vn 0.3827 0.0000 0.9239
vn -0.3827 0.0000 0.9239
vn -0.9239 0.0000 0.3827
vn -0.9239 0.0000 -0.3827
vn -0.3827 0.0000 -0.9239
usemtl ss_pipe
s off
f 1/1/1 2/2/1 4/3/1 3/4/1
f 3/5/2 4/6/2 6/7/2 5/8/2
f 5/9/3 6/10/3 8/11/3 7/12/3
f 7/13/4 8/14/4 10/15/4 9/16/4
f 9/17/5 10/18/5 12/19/5 11/20/5
f 11/21/6 12/22/6 14/23/6 13/24/6
f 13/25/7 14/26/7 16/27/7 15/28/7
f 15/29/8 16/30/8 2/31/8 1/32/8
