# Blender v2.83.1 OBJ File: ''
# www.blender.org
mtllib ss_pipe.mtl
o ss_pipe_elbow_SSPipes.006
v 0.877387 0.344800 0.657300
v 0.657587 0.125400 0.440700
v 0.657687 0.125400 0.001800
v 0.877087 0.344800 0.001800
v 0.877387 0.655200 0.657300
v 0.877087 0.655200 0.001800
v 0.657587 0.874600 0.440700
v 0.657687 0.874600 0.001800
v 0.347287 0.874600 0.001800
v 0.347387 0.874600 0.130400
v 0.127487 0.655200 0.127200
v 0.127487 0.655200 0.001800
v 0.127487 0.344800 0.127200
v 0.127487 0.344800 0.001800
v 0.347287 0.125400 0.001800
v 0.347387 0.125400 0.130400
v 0.002487 0.344800 0.876400
v 0.002487 0.125400 0.657000
v 0.436587 0.125400 0.657000
v 0.656587 0.344800 0.876400
v 0.002487 0.655200 0.876400
v 0.656587 0.655200 0.876400
v 0.002487 0.874600 0.657000
v 0.436587 0.874600 0.657000
v 0.002487 0.874600 0.346600
v 0.127487 0.874600 0.346600
v 0.002487 0.655200 0.127200
v 0.002487 0.344800 0.127200
v 0.127487 0.125400 0.346600
v 0.002487 0.125400 0.346600
vt 1.000000 1.000000
vt 0.833300 0.875000
vt 0.833300 0.625000
vt 1.000000 0.625000
vt 1.000000 0.541700
vt 0.833300 0.541700
vt 0.833300 0.208300
vt 1.000000 0.208300
vt 1.000000 0.750000
vt 0.833300 0.625000
vt 0.833300 1.000000
vt 1.000000 1.000000
vt 0.833300 1.000000
vt 1.000000 1.000000
vt 1.000000 0.875000
vt 0.833300 0.750000
vt 1.000000 0.583300
vt 0.833300 0.583300
vt 0.833300 0.458300
vt 1.000000 0.458300
vt 1.000000 0.583300
vt 0.833300 0.583300
vt 0.833300 0.458300
vt 1.000000 0.458300
vt 1.000000 0.458300
vt 1.000000 0.583300
vt 0.833300 0.583300
vt 0.833300 0.458300
vt 0.833300 0.875000
vt 0.833300 0.750000
vt 1.000000 0.750000
vt 1.000000 1.000000
vt 1.000000 0.625000
vt 0.833300 0.625000
vt 0.833300 0.875000
vt 1.000000 1.000000
vt 1.000000 0.541700
vt 0.833300 0.541700
vt 0.833300 0.208300
vt 1.000000 0.208300
vt 1.000000 1.000000
vt 0.833300 1.000000
vt 0.833300 0.625000
vt 1.000000 0.750000
vt 1.000000 1.000000
vt 0.833300 1.000000
vt 0.833300 0.750000
vt 1.000000 0.875000
vt 1.000000 0.458300
vt 0.833300 0.458300
vt 0.833300 0.583300
vt 1.000000 0.583300
vt 0.833300 0.583300
vt 0.833300 0.458300
vt 1.000000 0.458300
vt 0.833300 0.458300
vt 1.000000 0.458300
vt 1.000000 0.583300
vt 0.833300 0.583300
vt 1.000000 0.750000
vt 0.833300 0.750000
vt 0.833300 0.875000
vt 1.000000 1.000000
vt 0.833300 0.750000
vt 1.000000 0.750000
vt 0.833300 0.750000
vt 1.000000 0.375000
vt 1.000000 0.541700
vt 0.833300 0.541700
vt 0.833300 0.375000
vt 1.000000 0.208300
vt 1.000000 0.375000
vt 0.833300 0.375000
vt 0.833300 0.208300
vt 1.000000 0.208300
vt 1.000000 0.375000
vt 0.833300 0.375000
vt 0.833300 0.208300
vt 1.000000 0.208300
vt 1.000000 0.375000
vt 0.833300 0.375000
vt 0.833300 0.208300
vt 1.000000 0.208300
vt 1.000000 0.375000
vt 0.833300 0.375000
vt 0.833300 0.208300
vn 0.6786 -0.7345 -0.0000
vn 0.6782 -0.7349 0.0002
vn 0.6786 -0.7345 -0.0001
vn 0.6790 -0.7342 -0.0003
vn 1.0000 -0.0000 -0.0005
vn 0.6787 0.7344 -0.0001
vn 0.6785 0.7346 -0.0003
vn 0.6787 0.7344 -0.0000
vn 0.6790 0.7342 0.0002
vn 0.0000 1.0000 -0.0000
vn -0.6782 0.7348 0.0005
vn -0.6782 0.7349 0.0003
vn -0.6782 0.7349 0.0002
vn -0.6783 0.7348 -0.0000
vn -1.0000 0.0000 0.0000
vn -0.6782 -0.7349 0.0003
vn -0.6783 -0.7348 0.0000
vn 0.0000 -1.0000 0.0000
vn 0.0000 -0.7071 0.7071
vn -0.0000 0.0000 1.0000
vn 0.0000 0.7071 0.7071
vn 0.0000 0.7071 -0.7071
vn 0.0000 0.0000 -1.0000
vn 0.0000 -0.7071 -0.7071
vn -0.5409 0.5947 -0.5947
vn -0.5409 -0.5947 -0.5947
vn 0.3797 -0.8258 0.4169
vn 0.3803 -0.8268 0.4145
vn 0.3794 -0.8248 0.4192
vn 0.6761 0.0000 0.7368
vn 0.3798 0.8259 0.4168
vn 0.3776 0.8266 0.4172
vn 0.3797 0.8259 0.4168
vn 0.3821 0.8250 0.4164
usemtl Pipes.001
s 1
f 1/1/1 2/2/2 3/3/3
f 3/3/3 4/4/4 1/1/1
f 5/5/5 1/6/5 4/7/5
f 4/7/5 6/8/5 5/5/5
f 7/9/6 5/10/7 6/11/8
f 6/11/8 8/12/9 7/9/6
f 8/13/10 9/14/10 10/15/10
f 10/15/10 7/16/10 8/13/10
f 11/17/11 10/18/12 9/19/13
f 9/19/13 12/20/14 11/17/11
f 13/21/15 11/22/15 12/23/15
f 12/23/15 14/24/15 13/21/15
f 15/25/16 16/26/16 13/27/16
f 13/27/17 14/28/17 15/25/17
f 16/29/18 15/30/18 3/31/18
f 3/31/18 2/32/18 16/29/18
f 17/33/19 18/34/19 19/35/19
f 19/35/19 20/36/19 17/33/19
f 21/37/20 17/38/20 20/39/20
f 20/39/20 22/40/20 21/37/20
f 23/41/21 21/42/21 22/43/21
f 22/43/21 24/44/21 23/41/21
f 25/45/10 23/46/10 24/47/10
f 24/47/10 26/48/10 25/45/10
f 11/17/22 27/49/22 25/50/22
f 25/50/22 26/51/22 11/17/22
f 28/52/23 27/53/23 11/54/23
f 11/54/23 13/55/23 28/52/23
f 13/56/24 29/57/24 30/58/24
f 30/58/24 28/59/24 13/56/24
f 18/60/18 30/61/18 29/62/18
f 29/62/18 19/63/18 18/60/18
f 26/51/25 10/64/25 11/17/25
f 29/65/26 13/66/26 16/26/26
f 1/67/27 20/68/28 19/69/27
f 19/69/27 2/70/29 1/67/27
f 5/71/30 22/72/30 20/73/30
f 20/73/30 1/74/30 5/71/30
f 7/75/31 24/76/32 22/77/33
f 22/77/33 5/78/34 7/75/31
f 10/79/10 26/80/10 24/81/10
f 24/81/10 7/82/10 10/79/10
f 2/83/18 19/84/18 29/85/18
f 29/85/18 16/86/18 2/83/18
