# Blender v2.83.1 OBJ File: ''
# www.blender.org
mtllib ss_pipe.mtl
o ss_pipe_junction_cap_SSPipes.004
v 0.874600 0.812032 0.344800
v 0.655200 0.812032 0.125400
v 0.655200 0.999532 0.125400
v 0.874600 0.999832 0.344800
v 0.344800 0.812032 0.125400
v 0.344800 0.999832 0.125400
v 0.125400 0.812032 0.344800
v 0.125400 0.999532 0.344800
v 0.125400 0.812032 0.655200
v 0.125400 0.999832 0.655200
v 0.344800 0.812032 0.874600
v 0.344800 0.999532 0.874600
v 0.655200 0.812032 0.874600
v 0.655200 0.999832 0.874600
v 0.874600 0.812032 0.655200
v 0.874600 0.999532 0.655200
v 0.500000 0.812032 0.500000
v 0.874600 1.000032 0.655200
v 0.500000 1.000032 0.500000
v 0.344800 1.000032 0.874600
v 0.125400 1.000132 0.344800
v 0.655200 1.000032 0.125400
vt 0.000000 -0.000000
vt 0.300000 -0.000000
vt 0.300000 0.150000
vt 0.000000 0.150000
vt 0.000000 -0.000000
vt 0.300000 -0.000000
vt 0.300000 0.150000
vt 0.000000 0.150000
vt 0.000000 -0.000000
vt 0.300000 -0.000000
vt 0.300000 0.150000
vt 0.000000 0.150000
vt 0.000000 -0.000000
vt 0.300000 -0.000000
vt 0.300000 0.150000
vt 0.000000 0.150000
vt 0.000000 -0.000000
vt 0.300000 -0.000000
vt 0.300000 0.150000
vt 0.000000 0.150000
vt 0.000000 -0.000000
vt 0.300000 -0.000000
vt 0.300000 0.150000
vt 0.000000 0.150000
vt 0.000000 -0.000000
vt 0.300000 -0.000000
vt 0.300000 0.150000
vt 0.000000 0.150000
vt 0.000000 -0.000000
vt 0.300000 -0.000000
vt 0.300000 0.150000
vt 0.000000 0.150000
vt 0.000000 0.500000
vt 0.200000 0.300000
vt 0.350000 0.650000
vt 0.500000 0.300000
vt 0.700000 0.500000
vt 0.700000 0.800000
vt 0.500000 1.000000
vt 0.200000 1.000000
vt 0.000000 0.800000
vt 0.700000 0.500000
vt 0.350000 0.650000
vt 0.500000 0.300000
vt 0.200000 0.300000
vt 0.000000 0.500000
vt 0.000000 0.800000
vt 0.200000 1.000000
vt 0.500000 1.000000
vt 0.700000 0.800000
vn 0.7071 0.0000 -0.7071
vn 0.0000 0.0000 -1.0000
vn -0.7071 0.0000 -0.7071
vn -1.0000 -0.0000 0.0000
vn -0.7071 -0.0000 0.7071
vn 0.0000 -0.0000 1.0000
vn 0.7071 -0.0000 0.7071
vn 1.0000 -0.0000 0.0000
vn -0.0000 -1.0000 -0.0000
vn -0.0000 1.0000 0.0000
vn 0.0001 1.0000 0.0000
vn 0.0002 1.0000 0.0005
vn -0.0008 1.0000 -0.0003
vn -0.0011 1.0000 0.0000
vn 0.0002 1.0000 0.0001
vn -0.0000 1.0000 -0.0005
vn 0.0005 1.0000 -0.0002
usemtl Pipes.001
s 1
f 1/1/1 2/2/1 3/3/1
f 3/3/1 4/4/1 1/1/1
f 2/5/2 5/6/2 6/7/2
f 6/7/2 3/8/2 2/5/2
f 5/9/3 7/10/3 8/11/3
f 8/11/3 6/12/3 5/9/3
f 7/13/4 9/14/4 10/15/4
f 10/15/4 8/16/4 7/13/4
f 9/17/5 11/18/5 12/19/5
f 12/19/5 10/20/5 9/17/5
f 11/21/6 13/22/6 14/23/6
f 14/23/6 12/24/6 11/21/6
f 13/25/7 15/26/7 16/27/7
f 16/27/7 14/28/7 13/25/7
f 15/29/8 1/30/8 4/31/8
f 4/31/8 16/32/8 15/29/8
f 15/33/9 13/34/9 17/35/9
f 13/34/9 11/36/9 17/35/9
f 11/36/9 9/37/9 17/35/9
f 9/37/9 7/38/9 17/35/9
f 7/38/9 5/39/9 17/35/9
f 5/39/9 2/40/9 17/35/9
f 2/40/9 1/41/9 17/35/9
f 1/41/9 15/33/9 17/35/9
f 18/42/10 19/43/11 14/44/12
f 14/44/12 19/43/11 20/45/13
f 20/45/13 19/43/11 10/46/14
f 10/46/14 19/43/11 21/47/15
f 21/47/15 19/43/11 6/48/16
f 6/48/16 19/43/11 22/49/10
f 22/49/10 19/43/11 4/50/17
f 4/50/17 19/43/11 18/42/10
