# Blender v2.83.1 OBJ File: 'ss_pipe_elbow.blend'
# www.blender.org
mtllib ss_pipe_elbow.mtl
o ss_pipe_elbow_Cylinder.000
v 0.875000 0.500000 1.000000
v 0.765165 0.234835 1.000000
v 0.500000 0.125000 1.000000
v 0.234835 0.234835 1.000000
v 0.125000 0.500000 1.000000
v 0.234835 0.765165 1.000000
v 0.500000 0.875000 1.000000
v 0.765165 0.765165 1.000000
v 0.500000 0.300000 0.300000
v 0.234835 0.394612 0.378787
v 0.234835 0.765152 0.765165
v 0.500000 0.874987 0.875000
v 0.765165 0.765152 0.765165
v 0.875000 1.000000 0.500000
v 0.765165 1.000000 0.765165
v 0.500000 1.000000 0.875000
v 0.234835 1.000000 0.765165
v 0.125000 1.000000 0.500000
v 0.234835 1.000000 0.234835
v 0.500000 1.000000 0.125000
v 0.765165 1.000000 0.234835
v 0.875000 0.594612 0.591975
v 0.125000 0.594612 0.591975
v 0.765165 0.394612 0.378787
v 0.500000 0.124994 0.600698
v 0.234835 0.234829 0.650811
v 0.234835 0.765159 0.838075
v 0.765165 0.765159 0.838075
v 0.875000 0.500000 0.753674
v 0.765165 0.234829 0.650811
v 0.125000 0.500000 0.753674
v 0.875000 0.745748 0.500000
v 0.125000 0.745748 0.500000
v 0.765165 0.642885 0.234835
v 0.765165 0.838062 0.765165
v 0.234835 0.838062 0.765165
v 0.234835 0.642885 0.234835
v 0.500000 0.605960 0.125000
vt 0.078125 0.562665
vt 0.078125 0.671875
vt 0.000000 0.671875
vt 0.000000 0.562665
vt 0.078125 0.562665
vt 0.078125 0.671875
vt 0.000000 0.671875
vt 0.000000 0.562665
vt 0.078125 0.562665
vt 0.078125 0.671875
vt 0.000000 0.671875
vt 0.000000 0.562665
vt 0.078125 0.562665
vt 0.078125 0.671875
vt 0.000000 0.671875
vt 0.000000 0.562665
vt 0.078125 0.562665
vt 0.078125 0.671875
vt 0.000000 0.671875
vt 0.000000 0.562665
vt 0.078125 0.562665
vt 0.078125 0.671875
vt 0.000000 0.671875
vt 0.000000 0.562665
vt 0.078125 0.562665
vt 0.078125 0.671875
vt 0.000000 0.671875
vt 0.000000 0.562665
vt 0.078125 0.562665
vt 0.078125 0.671875
vt 0.000000 0.671875
vt 0.000000 0.562664
vt 0.078125 0.562748
vt 0.078125 0.671875
vt 0.000000 0.671875
vt 0.000000 0.562748
vt 0.078125 0.562748
vt 0.078125 0.671875
vt 0.000000 0.671875
vt 0.078125 0.671875
vt 0.000000 0.671875
vt 0.000000 0.562748
vt 0.078125 0.562748
vt 0.078125 0.671875
vt 0.000000 0.671875
vt 0.000000 0.562748
vt 0.078125 0.562748
vt 0.078125 0.671875
vt 0.000000 0.671875
vt 0.000000 0.562748
vt 0.078125 0.562748
vt 0.078125 0.671875
vt 0.000000 0.671875
vt 0.000000 0.562748
vt 0.078125 0.562748
vt 0.078125 0.671875
vt 0.000000 0.671875
vt 0.000000 0.562748
vt 0.078125 0.562748
vt 0.078125 0.671875
vt 0.000000 0.671875
vt 0.000000 0.562748
vt 0.078125 0.453454
vt 0.000000 0.453454
vt 0.000000 0.453454
vt 0.078125 0.453454
vt 0.000000 0.453454
vt 0.078125 0.453454
vt 0.000000 0.453454
vt 0.078125 0.453454
vt 0.000000 0.453454
vt 0.078125 0.453454
vt 0.000000 0.453454
vt 0.078125 0.453454
vt 0.000000 0.453454
vt 0.078125 0.453454
vt 0.000000 0.453454
vt 0.078125 0.453621
vt 0.000000 0.453621
vt 0.078125 0.453621
vt 0.000000 0.453621
vt 0.078125 0.453621
vt 0.000000 0.453621
vt 0.078125 0.453621
vt 0.000000 0.453621
vt 0.078125 0.453621
vt 0.000000 0.453621
vt 0.000000 0.453621
vt 0.078125 0.453621
vt 0.000000 0.453621
vt 0.078125 0.453621
vt 0.000000 0.453621
vn 0.9239 -0.3827 0.0000
vn 0.3827 -0.9239 0.0000
vn -0.3827 -0.9239 0.0000
vn -0.9239 -0.3827 0.0000
vn -0.9239 0.3827 -0.0000
vn -0.3827 0.9239 -0.0001
vn 0.3827 0.9239 -0.0001
vn 0.9239 0.3827 -0.0000
vn 0.9239 -0.0000 0.3827
vn 0.3827 0.0000 0.9239
vn -0.3827 -0.0000 0.9239
vn -0.9239 0.0000 0.3827
vn -0.9239 0.0000 -0.3827
vn -0.3827 -0.0000 -0.9239
vn 0.3827 -0.0000 -0.9239
vn 0.9239 0.0000 -0.3827
vn 0.9157 0.3728 0.1503
vn -0.9157 0.3728 0.1503
vn -0.9312 -0.3144 -0.1844
vn -0.4145 -0.7857 -0.4593
vn 0.4145 -0.7857 -0.4593
vn 0.9312 -0.3144 -0.1844
vn 0.9322 -0.1840 -0.3116
vn 0.3966 -0.4579 -0.7957
vn -0.3966 -0.4579 -0.7957
vn -0.9322 -0.1840 -0.3116
vn -0.9171 0.1514 0.3688
vn 0.9171 0.1514 0.3688
usemtl ss_pipe
s off
f 29/1/1 1/2/1 2/3/1 30/4/1
f 30/5/2 2/6/2 3/7/2 25/8/2
f 25/9/3 3/10/3 4/11/3 26/12/3
f 26/13/4 4/14/4 5/15/4 31/16/4
f 31/17/5 5/18/5 6/19/5 27/20/5
f 27/21/6 6/22/6 7/23/6 12/24/6
f 12/25/7 7/26/7 8/27/7 28/28/7
f 28/29/8 8/30/8 1/31/8 29/32/8
f 32/33/9 14/34/9 15/35/9 35/36/9
f 35/37/10 15/38/10 16/39/10 12/24/10
f 12/25/11 16/40/11 17/41/11 36/42/11
f 36/43/12 17/44/12 18/45/12 33/46/12
f 33/47/13 18/48/13 19/49/13 37/50/13
f 37/51/14 19/52/14 20/53/14 38/54/14
f 38/55/15 20/56/15 21/57/15 34/58/15
f 34/59/16 21/60/16 14/61/16 32/62/16
f 13/63/17 28/29/17 29/32/17 22/64/17
f 12/25/7 28/28/7 13/65/7
f 11/66/6 27/21/6 12/67/6
f 23/68/18 31/17/18 27/20/18 11/69/18
f 10/70/19 26/13/19 31/16/19 23/71/19
f 9/72/20 25/9/20 26/12/20 10/73/20
f 24/74/21 30/5/21 25/8/21 9/75/21
f 22/76/22 29/1/22 30/4/22 24/77/22
f 24/78/23 34/59/23 32/62/23 22/79/23
f 9/80/24 38/55/24 34/58/24 24/81/24
f 10/82/25 37/51/25 38/54/25 9/83/25
f 23/84/26 33/47/26 37/50/26 10/85/26
f 11/86/27 36/43/27 33/46/27 23/87/27
f 12/25/11 36/42/11 11/88/11
f 13/89/10 35/37/10 12/90/10
f 22/91/28 32/33/28 35/36/28 13/92/28
